<?xml version="1.0" standalone="no"?>
<!DOCTYPE svg PUBLIC "-//W3C//DTD SVG 20010904//EN"
 "http://www.w3.org/TR/2001/REC-SVG-20010904/DTD/svg10.dtd">
<svg version="1.0" xmlns="http://www.w3.org/2000/svg"
 width="400.000000pt" height="400.000000pt" viewBox="0 0 400.000000 400.000000"
 preserveAspectRatio="xMidYMid meet">

<g transform="translate(0.000000,400.000000) scale(0.100000,-0.100000)"
fill="#000000" stroke="none">
<path d="M1820 3564 c-205 -37 -377 -121 -522 -253 -34 -31 -65 -51 -79 -51
-42 0 -128 48 -185 102 -62 58 -62 48 1 -62 124 -219 383 -468 662 -636 59
-35 112 -64 117 -64 5 0 34 12 65 28 79 38 173 38 253 -1 l57 -28 53 27 c277
139 630 472 749 706 27 54 40 94 18 55 -16 -27 -118 -99 -170 -118 l-48 -18
-76 64 c-125 106 -214 158 -352 206 -164 57 -375 74 -543 43z"/>
<path d="M2913 2968 c-11 -18 -48 -66 -83 -107 -62 -72 -63 -74 -51 -105 34
-83 41 -112 42 -175 1 -38 -4 -86 -11 -108 -40 -121 -171 -217 -319 -231 -63
-7 -66 -8 -64 -32 1 -14 3 -46 4 -72 1 -26 5 -51 8 -56 6 -8 187 -116 289
-172 23 -13 41 -29 39 -34 -2 -6 -55 -39 -118 -74 -63 -35 -137 -78 -165 -97
-66 -43 -134 -135 -194 -260 -76 -159 -108 -253 -251 -728 -13 -43 -28 -79
-33 -78 -6 0 -40 102 -78 228 -94 319 -130 418 -208 578 -95 195 -127 228
-324 340 -86 48 -156 92 -156 96 0 4 77 51 170 104 l170 98 2 63 c0 35 1 69 2
76 1 7 -16 13 -41 14 -145 7 -298 114 -339 237 -23 69 -21 159 6 233 11 32 23
66 26 75 4 11 -14 38 -48 77 -30 33 -65 76 -79 96 -13 20 -28 36 -34 36 -16 0
-83 -162 -111 -268 -25 -93 -26 -113 -35 -502 -4 -223 -13 -439 -18 -480 -27
-204 -104 -472 -189 -654 l-40 -85 173 139 c96 77 176 140 179 140 2 0 62 -94
132 -209 l128 -209 135 128 c119 112 137 126 148 111 6 -9 103 -165 215 -348
112 -183 207 -331 212 -330 4 2 102 156 217 342 116 187 214 341 219 343 5 2
66 -51 137 -117 70 -67 131 -121 134 -121 4 0 60 87 125 192 64 106 123 199
129 206 9 10 45 -14 179 -122 92 -75 171 -138 175 -140 4 -3 -16 51 -45 119
-85 198 -144 413 -175 635 -6 47 -15 261 -19 475 -8 416 -12 446 -65 595 -27
74 -72 170 -79 170 -2 0 -13 -15 -23 -32z"/>
<path d="M1374 2624 c-10 -54 2 -113 28 -141 53 -58 173 -82 265 -53 53 17 58
24 26 40 -60 31 -210 125 -250 157 -23 18 -46 33 -52 33 -5 0 -13 -16 -17 -36z"/>
<path d="M2540 2605 c-41 -29 -115 -75 -164 -104 l-89 -51 36 -15 c43 -18 150
-20 198 -3 77 26 122 80 122 148 0 40 -11 80 -21 79 -4 0 -41 -25 -82 -54z"/>
<path d="M1917 2450 c-99 -63 -145 -165 -156 -345 -4 -66 -10 -126 -14 -132
-4 -7 -39 -29 -77 -50 -39 -20 -70 -40 -70 -44 0 -3 19 -19 41 -34 133 -87
235 -250 315 -498 19 -61 38 -119 41 -127 2 -8 28 53 57 135 94 269 185 411
318 496 l49 32 -70 39 c-39 21 -77 49 -85 61 -9 14 -16 63 -19 137 -5 141 -29
212 -94 281 -80 86 -154 101 -236 49z"/>
</g>
</svg>
